# xmcd
#
# Track frame offsets:
#	150
#	12986
#	27297
#	41622
#	56874
#	75660
#	89852
#	102533
#	124852
#	137919
#	156650
#
# Disc length: 2303
#
# Revision: 1
# Processed by: cddbd v1.5.1PL0 Copyright (c) Steve Scherf et al.
# Submitted via: ExactAudioCopy v0.95a4
# Normalized: r0:TDELIM( - )
#
DISCID=9f08fd0b
DTITLE=Bob Korabline - Alex Bratetski - Long Distance Call
DYEAR=2003
DGENRE=Blues
TTITLE0=Born Blind - Williamson
TTITLE1=32-20 Blues - Johnson
TTITLE2=Trouble In Mind - Broonzy
TTITLE3=Sunnyland Blow - James
TTITLE4=Long Distance Call - Morganfield
TTITLE5=Hey-hey - Broonzy
TTITLE6=Little Red Rooster - Dixon
TTITLE7=Kindhearted Woman - Johnson
TTITLE8=Blues Before Sunrise - Carr
TTITLE9=Crossroads Blues - Johnson
TTITLE10=From Four Till Late - Johnson
EXTD=
EXTT0=
EXTT1=
EXTT2=
EXTT3=
EXTT4=
EXTT5=
EXTT6=
EXTT7=
EXTT8=
EXTT9=
EXTT10=
PLAYORDER=
